<svg xmlns="http://www.w3.org/2000/svg" width="375" height="108" viewBox="0 0 375 108"><path fill="#FFF" d="M78.281 46.987H48.014c-.781 0-1.414.634-1.414 1.415V63.2c0 .781.633 1.417 1.414 1.417h11.808v18.385s-2.651.904-9.98.904c-8.648 0-20.728-3.16-20.728-29.724 0-26.569 12.579-30.065 24.388-30.065 10.223 0 14.627 1.8 17.429 2.668.881.27 1.695-.607 1.695-1.389l3.376-14.298c0-.366-.124-.806-.54-1.104-1.139-.813-8.081-4.697-25.62-4.697-20.207 0-40.933 8.597-40.933 49.922 0 41.326 23.73 47.484 43.727 47.484 16.557 0 26.602-7.075 26.602-7.075.414-.229.458-.808.458-1.072V48.402c-.001-.781-.634-1.415-1.415-1.415zm155.984-36.738c0-.788-.624-1.423-1.405-1.423h-17.042c-.778 0-1.411.635-1.411 1.423 0 .003.005 32.934.005 32.934h-26.565V10.249c0-.788-.626-1.423-1.406-1.423h-17.042c-.776 0-1.408.635-1.408 1.423v89.177c0 .787.632 1.427 1.408 1.427h17.042c.779 0 1.406-.64 1.406-1.427V61.281h26.565s-.047 38.142-.047 38.145c0 .787.632 1.427 1.411 1.427h17.083c.78 0 1.404-.64 1.406-1.427V10.249zM110.44 21.95c0-6.136-4.92-11.095-10.99-11.095-6.063 0-10.987 4.959-10.987 11.095 0 6.131 4.923 11.104 10.987 11.104 6.071 0 10.99-4.973 10.99-11.104zm-1.218 58.664V39.45c0-.782-.63-1.421-1.41-1.421H90.823c-.779 0-1.477.804-1.477 1.585v58.977c0 1.733 1.08 2.249 2.478 2.249h15.306c1.68 0 2.091-.825 2.091-2.276.001-3.162.001-15.545.001-17.95zm189.81-42.451h-16.911c-.776 0-1.407.64-1.407 1.427v43.726s-4.297 3.144-10.395 3.144-7.716-2.767-7.716-8.737V39.591c0-.787-.63-1.427-1.406-1.427h-17.164c-.774 0-1.409.64-1.409 1.427V80.61c0 17.735 9.884 22.074 23.481 22.074 11.155 0 20.149-6.163 20.149-6.163s.429 3.248.622 3.633c.193.384.698.772 1.244.772l10.919-.049c.774 0 1.409-.64 1.409-1.424l-.006-59.862c.001-.788-.63-1.428-1.41-1.428zm46.222-2.003c-9.604 0-16.138 4.285-16.138 4.285V10.249c0-.788-.63-1.423-1.406-1.423h-17.091c-.777 0-1.408.635-1.408 1.423v89.177c0 .787.631 1.427 1.41 1.427h11.857c.534 0 .938-.275 1.237-.757.295-.479.72-4.112.72-4.112s6.988 6.623 20.218 6.623c15.531 0 24.438-7.878 24.438-35.366S354.866 36.16 345.254 36.16zm-6.67 50.245c-5.866-.179-9.845-2.841-9.845-2.841v-28.24s3.925-2.406 8.741-2.836c6.09-.546 11.958 1.294 11.958 15.821 0 15.32-2.648 18.343-10.854 18.096zM158.202 38.021h-12.784s-.019-16.885-.019-16.889c0-.64-.33-.959-1.069-.959h-17.42c-.677 0-1.041.298-1.041.949v17.452s-8.731 2.107-9.321 2.277c-.587.171-1.02.713-1.02 1.359v10.97c0 .788.63 1.425 1.409 1.425h8.932v26.384c0 19.597 13.746 21.521 23.021 21.521 4.238 0 9.308-1.361 10.146-1.67.506-.187.8-.711.8-1.279l.014-12.064c0-.786-.664-1.424-1.413-1.424-.745 0-2.651.304-4.613.304-6.279 0-8.407-2.92-8.407-6.699 0-3.776-.001-25.072-.001-25.072h12.785c.779 0 1.411-.637 1.411-1.425V39.442c0-.787-.631-1.421-1.41-1.421z"/></svg>